<?xml version="1.0" standalone="no"?><!DOCTYPE svg PUBLIC "-//W3C//DTD SVG 1.1//EN" "http://www.w3.org/Graphics/SVG/1.1/DTD/svg11.dtd"><svg t="1600687176866" class="icon" viewBox="0 0 1024 1024" version="1.1" xmlns="http://www.w3.org/2000/svg" p-id="13621" data-spm-anchor-id="a313x.7781069.0.i22" xmlns:xlink="http://www.w3.org/1999/xlink" width="200" height="200"><defs><style type="text/css"></style></defs><path d="M276 484h468v58H276z" fill="#5C7ED7" p-id="13622"></path><path d="M539 279v468h-58V279z" fill="#5C7ED7" p-id="13623"></path><path d="M517.2 969.5h-15.3L191.8 841 181 830.2l-128.5-310v-15.3L181 194.8l10.8-10.8 310-128.5h15.3L827.2 184l10.8 10.8 128.4 310.1v15.3L838 830.2 827.2 841l-310 128.5zM214.7 807.3l294.8 122.1 294.8-122.1 122.1-294.8-122.1-294.8L509.5 95.6 214.7 217.7 92.6 512.5l122.1 294.8z" fill="#003DE0" p-id="13624"></path></svg>