<?xml version="1.0" standalone="no"?><!DOCTYPE svg PUBLIC "-//W3C//DTD SVG 1.1//EN" "http://www.w3.org/Graphics/SVG/1.1/DTD/svg11.dtd"><svg t="1600752410360" class="icon" viewBox="0 0 1024 1024" version="1.1" xmlns="http://www.w3.org/2000/svg" p-id="3504" xmlns:xlink="http://www.w3.org/1999/xlink" width="200" height="200"><defs><style type="text/css"></style></defs><path d="M168 796.16v46.24a74.08 74.08 0 0 0 40 8.8 74.08 74.08 0 0 0 40-8.8v-46.24a136.48 136.48 0 0 1-40 5.44 136.48 136.48 0 0 1-40-5.44zM168 443.2v318.72a90.08 90.08 0 0 0 40 7.68 90.08 90.08 0 0 0 40-7.68V504.96h-1.44a215.36 215.36 0 0 1-78.56-61.76zM240 434.56a228.64 228.64 0 0 0 132.16 17.44 336 336 0 0 0 195.2-107.84v-176A312.8 312.8 0 0 0 384 66.56 192 192 0 0 0 352 64a188.96 188.96 0 0 0-84.8 20.16 180.64 180.64 0 0 0-99.2 162.4v61.28a168 168 0 0 0 38.72 106.72A190.72 190.72 0 0 0 240 434.56z m232-187.04A24 24 0 1 1 448 272a24 24 0 0 1 24-24.48zM272 256h128a16 16 0 0 1 0 32h-128a16 16 0 0 1 0-32z" fill="#FFFFFF" p-id="3505"></path><path d="M372.8 452a228.64 228.64 0 0 1-132.8-17.44 190.72 190.72 0 0 1-33.92-20 167.36 167.36 0 0 0 59.84 46.24 203.84 203.84 0 0 0 118.24 16 312.64 312.64 0 0 0 183.84-102.24v-30.4a336 336 0 0 1-195.2 107.84z" fill="#EAEAF4" p-id="3506"></path><path d="M168 761.92v34.24a136.48 136.48 0 0 0 40 5.44 136.48 136.48 0 0 0 40-5.44v-34.24a90.08 90.08 0 0 1-40 7.68 90.08 90.08 0 0 1-40-7.68z" fill="#FFDA64" p-id="3507"></path><path d="M168 842.4v28.96A76.64 76.64 0 0 0 208 880a74.72 74.72 0 0 0 40-8.8v-28.8a74.08 74.08 0 0 1-40 8.8 74.08 74.08 0 0 1-40-8.8z" fill="#EAEAF4" p-id="3508"></path><path d="M873.92 596h-118.08v-464h118.08z" fill="#FFFFFF" p-id="3509"></path><path d="M432 640a336 336 0 0 1 203.2-116.48 228.64 228.64 0 0 1 132.8 17.92 192 192 0 0 1 112 174.88v61.28a205.6 205.6 0 0 1-113.6 184 214.24 214.24 0 0 1-131.04 19.68A336 336 0 0 1 432 864z" fill="#FFFFFF" p-id="3510"></path><path d="M845.92 608a192 192 0 0 1 10.08 60.96v61.28a205.6 205.6 0 0 1-113.6 184 214.24 214.24 0 0 1-131.04 19.68A336 336 0 0 1 432 842.24V864a336 336 0 0 0 203.2 116.48 214.24 214.24 0 0 0 131.04-19.68A205.6 205.6 0 0 0 880 777.44v-61.28A192 192 0 0 0 845.92 608z" fill="#EAEAF4" p-id="3511"></path><path d="M866.72 269.76s-11.84-16-50.72-16-50.4 14.72-50.4 14.88l-27.2-16.96c1.92-3.04 20.32-29.92 77.6-29.92s75.68 26.88 77.6 29.92l-27.2 16.96 13.6-7.84z" fill="#FFDA64" p-id="3512"></path><path d="M610.4 398.88a24 24 0 0 0 5.6-16V160a24 24 0 0 0-5.6-16 360.8 360.8 0 0 0-217.76-124.8 236.8 236.8 0 0 0-145.76 21.92A228.32 228.32 0 0 0 120 246.56V881.6a24 24 0 0 0 3.68 12.64C127.2 900 147.68 928 208 928s80.8-28 84.32-33.76a24 24 0 0 0 3.68-12.64V520.96a250.88 250.88 0 0 0 54.88 6.24 253.76 253.76 0 0 0 41.76-3.52 360.8 360.8 0 0 0 217.76-124.8zM248 761.92v109.28A74.72 74.72 0 0 1 208 880a76.64 76.64 0 0 1-40-8.64V443.2a215.36 215.36 0 0 0 78.56 61.28h1.44z m320-417.76v30.4A312.64 312.64 0 0 1 384 476.32a203.84 203.84 0 0 1-118.24-16 169.6 169.6 0 0 1-98.56-152.96v-60.8a180.64 180.64 0 0 1 101.28-162.4A188.96 188.96 0 0 1 353.28 64a192 192 0 0 1 32 2.56 312.8 312.8 0 0 1 182.72 101.76z" fill="#3A394B" p-id="3513"></path><path d="M400 256h-128a16 16 0 0 0 0 32h128a16 16 0 0 0 0-32z" fill="#3A394B" p-id="3514"></path><path d="M472 271.52m-24 0a24 24 0 1 0 48 0 24 24 0 1 0-48 0Z" fill="#3A394B" p-id="3515"></path><path d="M900.32 129.6C896.8 124 876.32 96 816 96s-80.8 28-84.32 33.6a24 24 0 0 0-3.68 12.64v360.8a251.68 251.68 0 0 0-96-2.72 360.8 360.8 0 0 0-217.76 124.8 24 24 0 0 0-5.6 16V864a24 24 0 0 0 5.6 16 360.8 360.8 0 0 0 217.76 124.8 240 240 0 0 0 39.52 3.36 236.96 236.96 0 0 0 106.24-25.28 228.32 228.32 0 0 0 126.24-205.44V142.4a24 24 0 0 0-3.68-12.8zM856 744v33.44a180.64 180.64 0 0 1-100.48 162.4 189.44 189.44 0 0 1-115.52 17.6 312.8 312.8 0 0 1-184-101.76V649.44A312.64 312.64 0 0 1 640 547.68a204 204 0 0 1 118.24 16 168.32 168.32 0 0 1 98.56 152.96z m0-163.2a215.36 215.36 0 0 0-78.56-61.28h-1.44V152.48A78.08 78.08 0 0 1 816 144a76.8 76.8 0 0 1 40 8.64z" fill="#3A394B" p-id="3516"></path><path d="M752 736h-128a16 16 0 0 0 0 32h128a16 16 0 0 0 0-32z" fill="#3A394B" p-id="3517"></path><path d="M552 752.48m-24 0a24 24 0 1 0 48 0 24 24 0 1 0-48 0Z" fill="#3A394B" p-id="3518"></path></svg>